<?xml version="1.0" encoding="UTF-8"?>
<svg id="_レイヤー_1" xmlns="http://www.w3.org/2000/svg" version="1.1" viewBox="0 0 147.87 46.49">
  <!-- Generator: Adobe Illustrator 29.7.1, SVG Export Plug-In . SVG Version: 2.1.1 Build 8)  -->
  <defs>
    <style>
      .st0 {
        fill: #ff6146;
      }

      .st1 {
        isolation: isolate;
      }

      .st2 {
        fill: #fff;
      }

      .st3 {
        fill: #fdffff;
      }

      .st4 {
        fill: none;
        stroke: #ff6146;
        stroke-linecap: round;
        stroke-miterlimit: 10;
        stroke-width: 2px;
      }
    </style>
  </defs>
  <g class="st1">
    <g class="st1">
      <path class="st2" d="M56.29,37.85v-20.69h4.39l.3,2.92c.52-1.03,1.33-1.86,2.43-2.5,1.1-.63,2.27-.95,3.51-.95.49,0,.93.03,1.33.09s.75.13,1.03.21v4.69c-.37-.11-.81-.21-1.31-.28-.5-.07-1.08-.11-1.74-.11-1.41,0-2.6.46-3.59,1.38s-1.48,2.21-1.48,3.87v11.35h-4.86v.02Z"/>
      <path class="st2" d="M75.78,13.76c-.83,0-1.55-.3-2.15-.9-.6-.6-.9-1.32-.9-2.15s.3-1.55.9-2.15c.6-.6,1.32-.9,2.15-.9s1.55.3,2.15.9c.6.6.9,1.32.9,2.15s-.3,1.55-.9,2.15c-.6.6-1.32.9-2.15.9ZM73.41,37.85v-20.69h4.82v20.69h-4.82Z"/>
      <path class="st2" d="M82.66,37.85v-3.96l10.11-12.77h-9.59v-3.96h15.36v3.96l-10.24,12.73h10.67v4h-16.31Z"/>
      <path class="st2" d="M112.98,38.32c-1.18,0-2.25-.25-3.23-.75-.97-.5-1.82-1.2-2.54-2.09l-.26,2.37h-4.21V7.18h4.86v11.83c.69-.75,1.49-1.33,2.41-1.74.92-.42,1.91-.62,2.97-.62,1.92,0,3.63.43,5.14,1.29,1.51.86,2.69,2.1,3.55,3.72.86,1.62,1.29,3.56,1.29,5.83s-.43,4.21-1.29,5.83-2.04,2.86-3.55,3.72c-1.5.86-3.22,1.29-5.14,1.29h0ZM112.81,33.94c1.52,0,2.78-.56,3.79-1.68,1-1.12,1.5-2.71,1.5-4.77s-.5-3.66-1.5-4.77c-1-1.12-2.27-1.68-3.79-1.68s-2.78.56-3.79,1.68-1.5,2.71-1.5,4.77.5,3.66,1.5,4.77c1,1.12,2.27,1.68,3.79,1.68Z"/>
      <path class="st2" d="M136.03,38.32c-1.89,0-3.59-.45-5.1-1.35-1.5-.9-2.7-2.16-3.57-3.79-.88-1.62-1.31-3.52-1.31-5.7s.44-4.08,1.31-5.7c.87-1.62,2.06-2.88,3.57-3.78s3.2-1.36,5.1-1.36,3.68.45,5.18,1.36c1.51.9,2.69,2.17,3.55,3.78.86,1.62,1.29,3.52,1.29,5.7s-.43,4.08-1.29,5.7c-.86,1.62-2.04,2.88-3.55,3.79-1.5.9-3.23,1.35-5.18,1.35ZM136.03,33.94c1.52,0,2.76-.56,3.72-1.68.96-1.12,1.44-2.71,1.44-4.77s-.48-3.66-1.44-4.77c-.96-1.12-2.2-1.68-3.72-1.68s-2.71.56-3.66,1.68-1.42,2.71-1.42,4.77.47,3.66,1.42,4.77c.95,1.12,2.17,1.68,3.66,1.68Z"/>
    </g>
  </g>
  <g>
    <path class="st0" d="M22.6,1.29C10.12,1.29,0,11.41,0,23.89c0,6.26,2.54,11.92,6.65,16.01l-4.6,3.98c-1.04.9-.4,2.61.97,2.61h19.57c12.48,0,22.6-10.12,22.6-22.6S35.08,1.29,22.6,1.29Z"/>
    <path class="st3" d="M22.62,20.86c-10.94,0-15.5,1.35-16.82,1.85-.04.39-.07.78-.07,1.18,0,7.71,7.55,13.96,16.87,13.96s16.87-6.25,16.87-13.96c0-.4-.03-.79-.07-1.18-1.31-.5-5.85-1.84-16.78-1.84h0Z"/>
    <g>
      <circle class="st0" cx="14.25" cy="26.2" r="3.31"/>
      <circle class="st0" cx="30.95" cy="26.2" r="3.31"/>
    </g>
    <path class="st4" d="M20.76,30.84h3.67"/>
  </g>
</svg>