<?xml version="1.0" encoding="UTF-8"?>
<svg id="_レイヤー_1" data-name="レイヤー_1" xmlns="http://www.w3.org/2000/svg" version="1.1" viewBox="0 0 147.87 46.49">
  <!-- Generator: Adobe Illustrator 29.7.1, SVG Export Plug-In . SVG Version: 2.1.1 Build 8)  -->
  <defs>
    <style>
      .st0 {
        fill: #ff6146;
      }

      .st1 {
        fill: #1f292e;
        font-family: ZenKakuGothicNew-Black, 'Zen Kaku Gothic New';
        font-size: 43.01px;
        font-weight: 800;
      }

      .st2 {
        fill: #fdffff;
      }

      .st3 {
        fill: none;
        stroke: #ff6146;
        stroke-linecap: round;
        stroke-miterlimit: 10;
        stroke-width: 2px;
      }
    </style>
  </defs>
  <text class="st1" transform="translate(53.67 37.85)"><tspan x="0" y="0">rizbo</tspan></text>
  <g>
    <path class="st0" d="M22.6,1.29C10.12,1.29,0,11.41,0,23.89c0,6.26,2.54,11.92,6.65,16.01l-4.6,3.98c-1.04.9-.4,2.61.97,2.61h19.57c12.48,0,22.6-10.12,22.6-22.6S35.08,1.29,22.6,1.29Z"/>
    <path class="st2" d="M22.62,20.86c-10.94,0-15.5,1.35-16.82,1.85-.04.39-.07.78-.07,1.18,0,7.71,7.55,13.96,16.87,13.96s16.87-6.25,16.87-13.96c0-.4-.03-.79-.07-1.18-1.31-.5-5.85-1.84-16.78-1.84Z"/>
    <g>
      <circle class="st0" cx="14.25" cy="26.2" r="3.31"/>
      <circle class="st0" cx="30.95" cy="26.2" r="3.31"/>
    </g>
    <path class="st3" d="M20.76,30.84h3.67"/>
  </g>
</svg>