<?xml version="1.0" encoding="UTF-8"?>
<svg id="_レイヤー_1" data-name="レイヤー_1" xmlns="http://www.w3.org/2000/svg" version="1.1" viewBox="0 0 180 180">
  <!-- Generator: Adobe Illustrator 29.7.1, SVG Export Plug-In . SVG Version: 2.1.1 Build 8)  -->
  <defs>
    <style>
      .st0 {
        fill: #ff6146;
      }

      .st1 {
        fill: #fdffff;
      }
    </style>
  </defs>
  <g>
    <path class="st0" d="M90.02,0C40.32,0,.02,40.3.02,90c0,24.93,10.12,47.47,26.48,63.76l-18.32,15.85c-4.14,3.58-1.59,10.39,3.86,10.39h77.93c49.7,0,90-40.3,90-90S139.72,0,90.02,0Z"/>
    <path class="st1" d="M90.1,77.93c-43.57,0-61.73,5.38-66.98,7.37-.16,1.55-.28,3.11-.28,4.7,0,30.7,30.07,55.59,67.18,55.59s67.18-24.89,67.18-55.59c0-1.59-.12-3.15-.28-4.7-5.22-1.99-23.3-7.33-66.82-7.33h0v-.04Z"/>
    <g>
      <circle class="st0" cx="56.77" cy="99.2" r="13.18"/>
      <circle class="st0" cx="123.27" cy="99.2" r="13.18"/>
    </g>
  </g>
  <path class="st0" d="M90.02,125c-7.57,0-13.82-2.99-15.97-7.57-1.23-2.59-.12-5.65,2.47-6.89,2.55-1.19,5.58-.12,6.85,2.35.48.52,2.75,1.75,6.69,1.75s6.33-1.31,6.69-1.79c1.23-2.59,4.26-3.62,6.85-2.39s3.66,4.38,2.43,6.97c-2.15,4.58-8.44,7.57-15.97,7.57h-.04ZM83.41,113.02h0Z"/>
</svg>